<?xml version="1.0" standalone="no"?>
<!DOCTYPE svg PUBLIC "-//W3C//DTD SVG 1.1//EN" 
  "http://www.w3.org/Graphics/SVG/1.1/DTD/svg11.dtd">
<svg xmlns="http://www.w3.org/2000/svg" version="1.1" viewBox="0 0 108 108"><defs>
    <style type="text/css"><![CDATA[
      .hour {
        font-family: arial;
        font-size: 8px;
        fill: #000000;}
    ]]></style>
  </defs>
  
    <rect x="0" y="0" width="108" height="108" fill="white" fill-opacity="0.5" stroke="none"/><g transform="translate(0, 12)"><g transform="translate(0, 0)">
      <rect data-tippy-content="0 km on 21:00 ~ 21:59" class="each-day" rx="2" ry="2" width="10" height="10" x="13" y="0" fill="#eeeeee" data-count="0" data-hour="21" data-unit="km"/>
      <rect data-tippy-content="0 km on 20:00 ~ 20:59" class="each-day" rx="2" ry="2" width="10" height="10" x="13" y="12" fill="#eeeeee" data-count="0" data-hour="20" data-unit="km"/>
      <rect data-tippy-content="0 km on 19:00 ~ 19:59" class="each-day" rx="2" ry="2" width="10" height="10" x="13" y="24" fill="#eeeeee" data-count="0" data-hour="19" data-unit="km"/>
      <rect data-tippy-content="0 km on 18:00 ~ 18:59" class="each-day" rx="2" ry="2" width="10" height="10" x="13" y="36" fill="#eeeeee" data-count="0" data-hour="18" data-unit="km"/>
      <rect data-tippy-content="0 km on 17:00 ~ 17:59" class="each-day" rx="2" ry="2" width="10" height="10" x="13" y="48" fill="#eeeeee" data-count="0" data-hour="17" data-unit="km"/>
      <rect data-tippy-content="4 km on 16:00 ~ 16:59" class="each-day" rx="2" ry="2" width="10" height="10" x="13" y="60" fill="#ffd5d5" data-count="4" data-hour="16" data-unit="km"/>
      <rect data-tippy-content="0 km on 15:00 ~ 15:59" class="each-day" rx="2" ry="2" width="10" height="10" x="13" y="72" fill="#eeeeee" data-count="0" data-hour="15" data-unit="km"/>
    </g>
    <g transform="translate(13, 0)">
      <rect data-tippy-content="0 km on 22:00 ~ 22:59" class="each-day" rx="2" ry="2" width="10" height="10" x="12" y="0" fill="#eeeeee" data-count="0" data-hour="22" data-unit="km"/>
      <rect data-tippy-content="0 km on 14:00 ~ 14:59" class="each-day" rx="2" ry="2" width="10" height="10" x="12" y="72" fill="#eeeeee" data-count="0" data-hour="14" data-unit="km"/>
    </g>
    <g transform="translate(26, 0)">
      <rect data-tippy-content="0 km on 23:00 ~ 23:59" class="each-day" rx="2" ry="2" width="10" height="10" x="11" y="0" fill="#eeeeee" data-count="0" data-hour="23" data-unit="km"/>
      <rect data-tippy-content="0 km on 13:00 ~ 13:59" class="each-day" rx="2" ry="2" width="10" height="10" x="11" y="72" fill="#eeeeee" data-count="0" data-hour="13" data-unit="km"/>
    </g>
    <g transform="translate(39, 0)">
      <rect data-tippy-content="0 km on 00:00 ~ 00:59" class="each-day" rx="2" ry="2" width="10" height="10" x="10" y="0" fill="#eeeeee" data-count="0" data-hour="00" data-unit="km"/>
      <rect data-tippy-content="0 km on 12:00 ~ 12:59" class="each-day" rx="2" ry="2" width="10" height="10" x="10" y="72" fill="#eeeeee" data-count="0" data-hour="12" data-unit="km"/>
    </g>
    <g transform="translate(52, 0)">
      <rect data-tippy-content="0 km on 01:00 ~ 01:59" class="each-day" rx="2" ry="2" width="10" height="10" x="9" y="0" fill="#eeeeee" data-count="0" data-hour="01" data-unit="km"/>
      <rect data-tippy-content="0 km on 11:00 ~ 11:59" class="each-day" rx="2" ry="2" width="10" height="10" x="9" y="72" fill="#eeeeee" data-count="0" data-hour="11" data-unit="km"/>
    </g>
    <g transform="translate(65, 0)">
      <rect data-tippy-content="0 km on 02:00 ~ 02:59" class="each-day" rx="2" ry="2" width="10" height="10" x="8" y="0" fill="#eeeeee" data-count="0" data-hour="02" data-unit="km"/>
      <rect data-tippy-content="0 km on 10:00 ~ 10:59" class="each-day" rx="2" ry="2" width="10" height="10" x="8" y="72" fill="#eeeeee" data-count="0" data-hour="10" data-unit="km"/>
    </g>
    <g transform="translate(78, 0)">
      <rect data-tippy-content="0 km on 03:00 ~ 03:59" class="each-day" rx="2" ry="2" width="10" height="10" x="7" y="0" fill="#eeeeee" data-count="0" data-hour="03" data-unit="km"/>
      <rect data-tippy-content="0 km on 04:00 ~ 04:59" class="each-day" rx="2" ry="2" width="10" height="10" x="7" y="12" fill="#eeeeee" data-count="0" data-hour="04" data-unit="km"/>
      <rect data-tippy-content="0 km on 05:00 ~ 05:59" class="each-day" rx="2" ry="2" width="10" height="10" x="7" y="24" fill="#eeeeee" data-count="0" data-hour="05" data-unit="km"/>
      <rect data-tippy-content="0 km on 06:00 ~ 06:59" class="each-day" rx="2" ry="2" width="10" height="10" x="7" y="36" fill="#eeeeee" data-count="0" data-hour="06" data-unit="km"/>
      <rect data-tippy-content="0 km on 07:00 ~ 07:59" class="each-day" rx="2" ry="2" width="10" height="10" x="7" y="48" fill="#eeeeee" data-count="0" data-hour="07" data-unit="km"/>
      <rect data-tippy-content="0 km on 08:00 ~ 08:59" class="each-day" rx="2" ry="2" width="10" height="10" x="7" y="60" fill="#eeeeee" data-count="0" data-hour="08" data-unit="km"/>
      <rect data-tippy-content="0 km on 09:00 ~ 09:59" class="each-day" rx="2" ry="2" width="10" height="10" x="7" y="72" fill="#eeeeee" data-count="0" data-hour="09" data-unit="km"/>
    </g>
    
    </g>
    <!-- <text x="14" y="11" class="hour">21</text> -->
    <text x="52" y="11" class="hour">0</text>
    <!-- <text x="88" y="11" class="hour">3</text> -->
    <text x="96" y="56" class="hour">6</text>
    <!-- <text x="88" y="101" class="hour">9</text> -->
    <text x="49" y="101" class="hour">12</text>
    <!-- <text x="13" y="101" class="hour">15</text> -->
    <text x="3" y="56" class="hour">18</text>


<a href="https://pixe.la/v1/users/alihusain/graphs/asd12es.html" target="_blank">
<g>

<svg version="1.0" xmlns="http://www.w3.org/2000/svg" x="24" y="45" width="59px" height="14px" viewBox="0 0 14740 3980" preserveAspectRatio="xMidYMid meet">
<g id="layer101" fill="#000000" stroke="none">
 <path d="M2430 3706 l0 -276 501 0 c396 0 500 3 497 13 -7 21 -168 155 -273 226 -187 128 -388 222 -590 276 -55 14 -108 29 -117 31 -17 5 -18 -13 -18 -270z"/>
 <path d="M1210 3700 l0 -270 270 0 270 0 0 270 0 270 -270 0 -270 0 0 -270z"/>
 <path d="M1820 3700 l0 -270 270 0 270 0 0 270 0 270 -270 0 -270 0 0 -270z"/>
 <path d="M4990 2550 l0 -1240 235 0 235 0 0 90 0 91 65 -50 c92 -71 145 -100 243 -134 76 -26 104 -31 222 -35 191 -6 310 23 458 109 80 48 238 208 288 294 175 300 188 718 31 1019 -122 234 -336 406 -575 462 -92 22 -277 21 -367 -1 -95 -23 -216 -83 -300 -149 l-70 -55 -3 420 -2 419 -230 0 -230 0 0 -1240z m1032 189 c178 -37 338 -201 377 -387 16 -75 14 -218 -4 -285 -80 -307 -399 -460 -683 -327 -77 36 -178 133 -216 208 -56 112 -76 286 -47 412 63 268 313 433 573 379z"/>
 <path d="M610 3100 l0 -270 265 0 265 0 0 270 0 270 -265 0 -265 0 0 -270z"/>
 <path d="M1210 3100 l0 -270 270 0 270 0 0 270 0 270 -270 0 -270 0 0 -270z"/>
 <path d="M1820 3100 l0 -270 270 0 270 0 0 270 0 270 -270 0 -270 0 0 -270z"/>
 <path d="M2430 3100 l0 -270 710 0 c480 0 710 3 710 10 0 15 -56 123 -108 210 -51 84 -135 201 -196 272 l-41 48 -537 0 -538 0 0 -270z"/>
 <path d="M10700 3169 c-244 -21 -434 -111 -596 -281 -205 -216 -289 -504 -239 -828 60 -398 349 -705 730 -775 69 -13 126 -16 245 -12 187 6 271 25 415 96 311 154 486 446 502 839 l6 142 -731 0 c-403 0 -732 1 -732 3 0 2 7 28 16 58 51 173 181 298 354 340 75 18 221 15 299 -5 82 -22 140 -51 219 -111 l64 -48 141 68 c78 37 163 76 190 87 26 12 47 26 47 33 0 6 -28 45 -63 86 -200 234 -499 340 -867 308z m590 -1192 c0 -19 -66 -127 -98 -160 -90 -95 -224 -148 -373 -149 -204 -1 -354 81 -453 246 -20 33 -36 63 -36 68 0 4 216 8 480 8 389 0 480 -2 480 -13z"/>
 <path d="M13628 3169 c-359 -37 -671 -334 -749 -714 -24 -114 -26 -338 -4 -452 38 -203 118 -357 254 -494 163 -164 346 -239 582 -239 209 0 384 65 531 198 l38 34 0 -96 0 -96 230 0 230 0 0 910 0 910 -230 0 -230 0 0 -91 0 -91 -63 51 c-173 137 -366 193 -589 170z m273 -429 c173 -32 320 -170 373 -350 39 -131 27 -306 -30 -425 -87 -186 -304 -299 -511 -267 -239 38 -396 224 -410 487 -9 180 36 305 151 421 122 121 260 165 427 134z"/>
 <path d="M7190 2777 c0 -195 3 -604 7 -910 l6 -557 229 0 228 0 0 910 0 910 -235 0 -235 0 0 -353z"/>
 <path d="M7900 3125 c0 -2 153 -216 340 -475 187 -259 340 -473 340 -476 0 -3 -135 -193 -301 -421 -165 -228 -303 -421 -306 -429 -4 -12 38 -14 263 -14 l269 1 175 243 176 244 174 -244 175 -243 269 0 268 -1 -14 23 c-9 12 -147 204 -307 426 -161 222 -290 409 -287 416 3 10 641 895 679 943 7 9 -47 12 -264 12 l-274 -1 -209 -290 c-151 -210 -212 -287 -220 -279 -6 6 -101 135 -212 288 l-200 277 -267 3 c-147 1 -267 0 -267 -3z"/>
 <path d="M12070 1870 l0 -1260 235 0 235 0 0 878 c0 482 -3 1049 -7 1260 l-6 382 -229 0 -228 0 0 -1260z"/>
 <path d="M0 2495 l0 -265 270 0 270 0 0 265 0 265 -270 0 -270 0 0 -265z"/>
 <path d="M610 2495 l0 -265 265 0 265 0 0 265 0 265 -265 0 -265 0 0 -265z"/>
 <path d="M1210 2495 l0 -265 270 0 270 0 0 265 0 265 -270 0 -270 0 0 -265z"/>
 <path d="M1820 2495 l0 -265 270 0 270 0 0 265 0 265 -270 0 -270 0 0 -265z"/>
 <path d="M2430 2495 l0 -265 795 0 796 0 -5 33 c-3 17 -11 61 -16 97 -14 85 -64 271 -91 343 l-22 57 -728 0 -729 0 0 -265z"/>
 <path d="M2420 2146 c0 -2 26 -23 58 -47 87 -66 217 -195 287 -284 393 -503 389 -1097 -9 -1489 -140 -138 -330 -252 -491 -292 -83 -21 -109 -38 -45 -29 456 64 865 263 1207 588 284 270 498 648 572 1012 29 139 45 343 37 446 l-8 86 -390 6 c-423 8 -1218 9 -1218 3z"/>
 <path d="M1363 2125 c-222 -40 -414 -149 -543 -307 -64 -78 -143 -238 -172 -343 -17 -63 -21 -109 -22 -220 0 -127 2 -147 27 -219 66 -190 176 -279 379 -309 174 -25 328 39 404 168 l24 43 -6 601 c-4 330 -10 601 -13 600 -3 0 -38 -7 -78 -14z"/>
 <path d="M2580 1841 c54 -78 106 -194 132 -289 29 -109 28 -296 -1 -407 -58 -220 -200 -409 -373 -496 -73 -37 -194 -69 -260 -69 -166 0 -370 89 -519 227 -31 29 -59 53 -61 53 -3 0 -19 -23 -38 -51 -106 -164 -362 -216 -572 -115 -29 14 -54 24 -55 22 -8 -7 41 -116 85 -190 118 -198 336 -369 563 -441 176 -55 415 -75 580 -46 434 74 753 357 855 760 75 294 17 596 -166 869 -59 88 -184 232 -201 232 -5 0 9 -27 31 -59z"/>
 <path d="M2125 1453 c-55 -10 -67 -16 -101 -45 -46 -40 -64 -83 -64 -148 0 -95 50 -163 139 -186 93 -24 192 21 227 103 17 38 18 121 3 160 -12 34 -55 80 -89 97 -29 15 -86 24 -115 19z"/>
 <path d="M7398 949 c-12 -157 33 -294 133 -403 44 -48 49 -57 29 -51 -124 38 -228 140 -317 310 l-42 80 -1 -65 c0 -85 23 -178 65 -265 105 -216 323 -349 590 -362 l110 -6 -28 30 c-41 44 -47 78 -57 293 -5 107 -14 213 -21 235 -49 169 -159 247 -370 262 l-86 6 -5 -64z"/>
 </g>
<g id="layer102" fill="#226727" stroke="none">
 <path d="M2430 3706 l0 -276 500 0 c310 0 500 4 500 10 0 16 -169 157 -275 229 -185 126 -393 223 -593 277 -53 14 -105 28 -114 30 -17 5 -18 -13 -18 -270z"/>
 <path d="M1212 3703 l3 -268 268 -3 267 -2 0 270 0 270 -270 0 -270 0 2 -267z"/>
 <path d="M1820 3700 l0 -270 270 0 270 0 0 270 0 270 -270 0 -270 0 0 -270z"/>
 <path d="M610 3100 l0 -270 265 0 265 0 0 270 0 270 -265 0 -265 0 0 -270z"/>
 <path d="M1210 3100 l0 -270 270 0 270 0 0 270 0 270 -270 0 -270 0 0 -270z"/>
 <path d="M1820 3100 l0 -270 270 0 270 0 0 270 0 270 -270 0 -270 0 0 -270z"/>
 <path d="M2430 3100 l0 -270 710 0 c534 0 710 3 710 12 0 18 -96 193 -152 277 -28 42 -83 115 -121 164 l-70 87 -539 0 -538 0 0 -270z"/>
 <path d="M0 2495 l0 -265 270 0 270 0 0 265 0 265 -270 0 -270 0 0 -265z"/>
 <path d="M610 2495 l0 -265 265 0 265 0 0 265 0 265 -265 0 -265 0 0 -265z"/>
 <path d="M1210 2495 l0 -265 270 0 270 0 0 265 0 265 -270 0 -270 0 0 -265z"/>
 <path d="M1820 2495 l0 -265 270 0 270 0 0 265 0 265 -270 0 -270 0 0 -265z"/>
 <path d="M2430 2495 l0 -265 795 0 795 0 -5 28 c-2 15 -9 59 -15 97 -14 89 -53 239 -87 333 l-26 72 -728 0 -729 0 0 -265z"/>
 <path d="M2420 2147 c0 -2 36 -32 80 -67 167 -131 337 -336 425 -509 41 -83 87 -213 111 -316 29 -125 25 -340 -9 -468 -48 -179 -131 -322 -267 -457 -95 -95 -201 -172 -317 -230 -79 -39 -199 -80 -234 -80 -10 0 -19 -5 -19 -10 0 -6 10 -8 23 -6 12 3 67 12 122 22 255 42 556 166 791 324 453 306 774 768 874 1259 28 136 44 341 36 443 l-8 85 -396 6 c-409 7 -1212 9 -1212 4z"/>
 <path d="M1363 2125 c-296 -54 -518 -216 -644 -470 -105 -214 -126 -443 -58 -641 66 -188 222 -290 444 -288 79 0 112 5 156 22 68 27 140 88 174 147 l25 42 -6 602 c-4 330 -10 601 -13 600 -3 0 -38 -7 -78 -14z"/>
 <path d="M2580 1842 c105 -155 152 -306 152 -492 0 -147 -20 -240 -81 -365 -93 -193 -227 -315 -421 -381 -74 -25 -240 -25 -324 0 -121 36 -281 133 -365 220 -19 20 -38 36 -41 36 -4 0 -21 -23 -40 -51 -106 -164 -362 -216 -572 -115 -29 14 -54 23 -56 22 -2 -2 7 -28 19 -58 126 -302 400 -525 742 -603 391 -90 810 23 1068 287 349 357 382 904 80 1340 -54 79 -177 218 -192 218 -5 0 9 -26 31 -58z"/>
 <path d="M7405 1000 c-11 -18 -7 -182 5 -235 16 -69 66 -159 125 -223 41 -46 46 -54 25 -47 -124 38 -242 155 -326 323 l-33 67 -1 -65 c0 -86 23 -178 67 -270 52 -108 167 -222 283 -278 111 -55 182 -73 310 -79 l105 -6 -27 28 c-41 40 -48 79 -58 295 -5 107 -14 213 -21 235 -31 108 -88 178 -179 219 -84 38 -260 61 -275 36z"/>
 </g>
<g id="layer103" fill="#48a245" stroke="none">
 <path d="M1820 3700 l0 -270 270 0 270 0 0 270 0 270 -270 0 -270 0 0 -270z"/>
 <path d="M610 3100 l0 -270 265 0 265 0 0 270 0 270 -265 0 -265 0 0 -270z"/>
 <path d="M1210 3100 l0 -270 270 0 270 0 0 270 0 270 -270 0 -270 0 0 -270z"/>
 <path d="M2430 3100 l0 -270 711 0 710 0 -6 23 c-30 99 -270 459 -340 509 -5 4 -250 8 -542 8 l-533 0 0 -270z"/>
 <path d="M0 2495 l0 -265 270 0 270 0 0 265 0 265 -270 0 -270 0 0 -265z"/>
 <path d="M610 2495 l0 -265 265 0 265 0 0 265 0 265 -265 0 -265 0 0 -265z"/>
 <path d="M1820 2495 l0 -265 270 0 270 0 0 265 0 265 -270 0 -270 0 0 -265z"/>
 <path d="M2430 2495 l0 -265 795 0 795 0 -5 28 c-2 15 -9 59 -15 97 -14 89 -53 239 -87 333 l-26 72 -728 0 -729 0 0 -265z"/>
 <path d="M1363 2125 c-296 -54 -518 -216 -644 -470 -105 -214 -126 -443 -58 -641 66 -188 222 -290 444 -288 79 0 112 5 156 22 68 27 140 88 174 147 l25 42 -6 602 c-4 330 -10 601 -13 600 -3 0 -38 -7 -78 -14z"/>
 <path d="M2580 1842 c105 -155 152 -306 152 -492 0 -147 -20 -240 -81 -365 -93 -193 -227 -315 -421 -381 -74 -25 -240 -25 -324 0 -121 36 -281 133 -365 220 -19 20 -38 36 -41 36 -4 0 -21 -23 -40 -51 -106 -164 -362 -216 -572 -115 -29 14 -54 23 -56 22 -2 -2 7 -28 19 -58 126 -302 400 -525 742 -603 391 -90 810 23 1068 287 349 357 382 904 80 1340 -54 79 -177 218 -192 218 -5 0 9 -26 31 -58z"/>
 <path d="M7407 1003 c-16 -15 -7 -202 13 -266 24 -76 83 -169 141 -222 47 -42 32 -41 -56 3 -108 53 -197 150 -267 291 l-37 76 -1 -64 c0 -84 23 -178 68 -271 27 -57 56 -95 116 -155 91 -91 175 -140 296 -175 73 -21 270 -40 270 -26 0 4 -9 17 -20 28 -32 35 -41 82 -50 288 -5 107 -14 213 -21 235 -31 108 -88 177 -179 219 -74 34 -253 59 -273 39z"/>
 </g>
<g id="layer104" fill="#8ec56a" stroke="none">
 <path d="M1822 3703 l3 -268 265 0 265 0 3 268 2 267 -270 0 -270 0 2 -267z"/>
 <path d="M1210 3100 l0 -270 270 0 270 0 0 270 0 270 -270 0 -270 0 0 -270z"/>
 <path d="M0 2495 l0 -265 270 0 270 0 0 265 0 265 -270 0 -270 0 0 -265z"/>
 <path d="M610 2495 l0 -265 265 0 265 0 0 265 0 265 -265 0 -265 0 0 -265z"/>
 <path d="M2430 2495 l0 -265 794 0 795 0 -5 38 c-16 110 -50 261 -85 370 l-40 122 -730 0 -729 0 0 -265z"/>
 <path d="M1363 2125 c-296 -54 -518 -216 -644 -470 -105 -214 -126 -443 -58 -641 66 -188 222 -290 444 -288 79 0 112 5 156 22 68 27 140 88 174 147 l25 42 -6 602 c-4 330 -10 601 -13 600 -3 0 -38 -7 -78 -14z"/>
 <path d="M2550 1897 c0 -5 14 -28 30 -53 48 -69 108 -201 131 -289 28 -107 31 -279 6 -387 -64 -275 -249 -491 -484 -564 -123 -38 -284 -25 -416 32 -82 36 -210 121 -270 180 -26 26 -49 45 -50 43 -2 -2 -20 -27 -41 -56 -68 -96 -168 -149 -299 -159 -85 -7 -191 13 -269 50 -29 14 -54 23 -57 21 -9 -9 92 -202 140 -267 176 -236 459 -387 788 -418 267 -25 564 50 766 195 191 136 338 355 397 591 33 134 31 351 -6 489 -32 122 -124 313 -198 410 -58 77 -167 195 -168 182z"/>
 </g>
<g id="layer105" fill="#d6e58a" stroke="none">
 <path d="M1217 3363 c-4 -3 -7 -125 -7 -270 l0 -263 270 0 270 0 0 270 0 270 -263 0 c-145 0 -267 -3 -270 -7z"/>
 <path d="M0 2495 l0 -265 270 0 270 0 0 265 0 265 -270 0 -270 0 0 -265z"/>
 <path d="M1363 2125 c-299 -54 -534 -230 -655 -490 -104 -222 -114 -483 -25 -670 44 -92 99 -147 188 -190 216 -103 464 -51 564 119 l25 43 -7 601 c-3 331 -9 602 -12 601 -3 0 -38 -7 -78 -14z"/>
 </g>
</svg>
</g>
</a>
</svg>
